<?xml version="1.0" standalone="no"?> <!DOCTYPE svg PUBLIC "-//W3C//DTD SVG 1.0//EN" "http://www.w3.org/TR/2001/REC-SVG-20010904/DTD/svg10.dtd" > <svg xmlns="http://www.w3.org/2000/svg" width="100%" height="100%">
<defs >
<font id="pristina" horiz-adv-x="625" ><font-face
    font-family="Pristina"
    units-per-em="2048"
    panose-1="3 6 4 2 4 4 6 8 2 4"
    ascent="1536"
    descent="-915"
    alphabetic="0" />
<missing-glyph horiz-adv-x="369" d="M37 0V1365H332V0H37ZM295 37V1328H74V37H295Z" />
<glyph unicode=" " glyph-name="space" horiz-adv-x="369" />
<glyph unicode="!" glyph-name="exclam" horiz-adv-x="492" d="M625 1278Q434 950 285 426Q271 380 287 352Q290 347 290 343Q290 332 275 332Q254 332 223 354Q179 386 179 413Q179 426 184 449Q240 689 350 996Q437 1242 473 1309Q502 1363 526 1363Q531 1363
555 1356Q657 1328 657 1300Q657 1283 625 1278ZM225 109Q210 74 190 -25Q182 -45 156 -33Q81 0 81 46Q81 57 88 88Q95 123 102 157Q111 188 130 188Q137 188 145 184Q231 150 231 129Q231 121 225 109Z" />
<glyph unicode="&quot;" glyph-name="quotedbl" horiz-adv-x="565" d="M643 1237Q649 1171 594 1014Q543 868 519 868Q515 868 510 870Q456 902 451 946Q449 965 461 965Q513 1125 530 1300Q535 1341 536 1347Q540 1364 551 1368Q560 1371 623 1292Q640 1270 643
1237ZM406 1235Q412 1164 358 1012Q307 865 283 865Q278 865 272 868Q221 899 213 944Q213 965 223 963Q275 1127 293 1298Q297 1339 298 1345Q302 1362 313 1366Q322 1369 385 1290Q406 1264 406 1235Z" />
<glyph unicode="#" glyph-name="numbersign" horiz-adv-x="1079" d="M768 664Q674 664 461 672L369 416Q539 403 674 408Q696 461 768 664ZM891 750Q985 758 1018 795Q1030 808 1047 806Q1063 803 1063 791Q1054 772 1044 719Q1038 682 1020 673Q1012 669 967
666Q937 664 860 664L770 412Q922 420 954 459Q966 471 982 468Q997 465 995 453Q986 426 979 381Q974 348 970 344Q958 332 903 330Q816 326 739 326L721 272Q675 140 675 67Q675 49 682 35T690 13Q690 -11 661 -11Q650 -11 637 -6L584 12Q554 23 554 61Q554 77
561 96L645 326Q637 326 340 338Q334 322 317 272Q272 139 272 67Q272 49 279 35T287 13Q287 -11 258 -11Q247 -11 233 -6L182 12Q152 23 152 59Q152 76 160 96L250 342Q133 346 94 313Q85 303 71 304Q57 305 57 316Q58 320 59 324Q67 340 90 395Q102 425 109 429Q123
439 174 434Q211 431 279 424L371 678Q297 682 257 682Q204 682 186 674Q182 672 160 651Q149 641 136 642Q122 643 122 653Q122 657 125 662Q125 656 156 733Q167 763 173 766Q187 775 240 770Q296 766 399 758L416 803Q449 895 449 970Q449 994 440 1011T431
1035Q431 1058 459 1055L541 1044Q579 1034 567 969L489 750Q594 741 690 741Q740 741 797 743Q810 778 819 803Q853 892 853 970Q853 993 844 1011T834 1035Q834 1058 862 1055L942 1044Q983 1034 971 969L891 750Z" />
<glyph unicode="$" glyph-name="dollar" horiz-adv-x="791" d="M975 1202Q933 1074 872 979Q847 939 820 939Q794 939 733 979Q714 992 714 1004Q714 1022 745 1032Q768 1040 799 1118T831 1237Q831 1278 795 1278Q776 1278 739 1270Q640 1051 514 719Q573 611
632 504Q690 392 690 332Q690 162 514 57Q464 -20 383 -20Q338 -20 281 -6Q269 -52 262 -100Q253 -167 262 -186Q275 -214 247 -214Q238 -214 227 -205Q175 -162 175 -113Q175 -93 182 -70Q197 -23 209 18Q102 61 39 119Q0 154 0 186Q0 203 33 274Q50 312 64 312Q77
312 88 272Q105 211 250 147Q321 379 408 627Q281 869 281 981Q281 1112 449 1231Q465 1243 481 1243Q507 1243 507 1220Q507 1207 494 1194Q412 1117 416 1020Q419 924 471 807Q559 1051 643 1241Q605 1222 579 1222Q549 1222 549 1243Q549 1261 578 1276Q614
1295 680 1319Q715 1398 762 1491Q787 1541 825 1541Q830 1541 864 1534Q887 1530 887 1513Q887 1500 870 1491Q844 1477 813 1419Q803 1399 780 1356Q786 1358 795 1362Q820 1370 833 1370Q856 1370 895 1315Q957 1286 962 1283Q984 1268 984 1246Q984 1230 975
1202ZM555 262Q550 353 451 545Q356 276 313 123Q391 98 438 98Q563 98 555 262Z" />
<glyph unicode="%" glyph-name="percent" horiz-adv-x="1159" d="M662 1133Q601 944 520 866Q478 825 395 825Q374 825 356 831Q196 857 195 969Q194 1037 240 1159Q292 1296 352 1346Q385 1373 407 1373Q430 1373 489 1321Q568 1358 582 1358Q611 1358 646 1310T681
1222Q681 1192 662 1133ZM1057 1266L348 252Q213 58 213 -19Q213 -26 217 -38T221 -59Q221 -80 204 -80Q194 -80 182 -72L121 -29Q95 -10 95 20Q95 47 119 82L842 1108Q958 1272 958 1356Q958 1365 953 1378T948 1399Q948 1420 967 1420Q976 1420 987 1413L1049
1372Q1076 1354 1076 1327Q1076 1303 1057 1266ZM989 283Q926 88 848 14Q810 -21 723 -25Q702 -25 684 -18Q524 7 522 119Q521 188 568 311Q619 448 680 498Q712 524 734 524Q756 524 817 471Q896 508 910 508Q938 508 973 460T1008 371Q1008 341 989 283ZM578
1229Q584 1273 581 1284Q577 1299 551 1296Q516 1288 463 1272Q420 1263 416 1270Q343 1177 313 1022Q307 986 307 957Q307 862 367 862Q439 862 504 993Q559 1103 578 1229ZM905 379Q915 446 892 446Q887 446 879 444Q844 438 791 424Q749 409 743 420Q671 328
641 170Q634 135 634 106Q634 10 694 10Q767 10 832 142Q886 253 905 379Z" />
<glyph unicode="&amp;" glyph-name="ampersand" horiz-adv-x="1460" d="M1409 -133Q1380 -175 1311 -235Q1232 -305 1196 -305Q1060 -305 705 436Q687 435 675 435Q630 435 630 454Q630 472 670 514Q643 569 621 623V625Q185 294 156 117Q149 78 184 66Q210 57
250 63Q412 91 594 217Q609 228 618 252T647 289Q696 317 710 317Q736 317 739 272Q744 218 736 199Q729 184 698 164Q629 119 497 55Q310 -35 227 -35Q155 -35 113 45Q20 116 20 170Q20 266 231 457Q379 593 578 731Q487 970 487 1114Q487 1160 612 1160Q664 1160
715 1153Q762 1147 758 1120Q891 1114 946 1083Q979 1065 979 1027Q979 1015 969 924Q964 884 890 822Q853 791 713 690Q721 671 738 632T764 573Q811 571 868 571Q1181 571 1257 610Q1305 635 1309 662Q1313 679 1337 679Q1358 679 1358 653Q1358 613 1344 557Q1326
489 1300 469Q1285 457 1136 456Q1049 457 962 457Q888 456 823 451Q946 199 1056 34Q1180 -152 1241 -152Q1297 -151 1374 -92Q1383 -86 1394 -86Q1419 -86 1419 -107Q1419 -118 1409 -133ZM881 983Q886 1011 798 1050Q717 1085 680 1085Q610 1085 610 1020Q610
960 672 793Q753 848 818 910Q877 966 881 983Z" />
<glyph unicode="&apos;" glyph-name="quotesingle" horiz-adv-x="328" d="M406 1251Q412 1182 358 1030Q307 883 281 883Q276 883 272 885Q222 909 213 961Q213 981 223 981Q275 1143 293 1317Q297 1356 299 1363Q302 1379 313 1382Q323 1385 385 1307Q406 1281
406 1251Z" />
<glyph unicode="(" glyph-name="parenleft" horiz-adv-x="819" d="M989 1354Q1009 1340 1009 1325Q1009 1301 978 1301Q969 1301 961 1305Q879 1343 834 1343Q726 1343 559 930Q397 527 340 141Q332 89 332 57Q332 -7 367 -41Q397 -71 492 -111Q519 -122 519 -150Q519
-173 497 -173Q492 -173 487 -172Q330 -138 272 -97Q204 -49 204 46Q204 67 207 92Q251 459 428 932Q623 1453 764 1452Q852 1451 989 1354Z" />
<glyph unicode=")" glyph-name="parenright" horiz-adv-x="819" d="M735 1184Q693 838 532 377Q337 -181 170 -178Q79 -176 -47 -80Q-61 -69 -61 -57Q-61 -32 -27 -32Q-18 -32 -10 -35Q75 -68 119 -68Q219 -68 375 312Q537 705 600 1135Q605 1169 605 1197Q605
1274 563 1318Q530 1352 442 1391Q417 1402 417 1425Q417 1456 453 1448Q616 1410 675 1366Q738 1320 738 1231Q738 1210 735 1184Z" />
<glyph unicode="*" glyph-name="asterisk" horiz-adv-x="543" d="M631 1239Q645 1194 604 1184L502 1159Q522 1135 571 1077Q586 1060 586 1051Q586 1039 559 1020Q537 1004 526 1004Q513 1004 500 1026Q480 1057 444 1116Q427 1090 387 1026Q373 1002 362 1002Q352
1002 328 1019T304 1050Q304 1061 317 1077Q340 1105 387 1159Q370 1162 281 1184Q256 1190 252 1200Q249 1209 258 1239Q269 1273 286 1273Q295 1273 309 1268Q371 1243 408 1225Q405 1257 399 1333Q397 1367 416 1372Q425 1374 444 1374Q490 1374 487 1333Q484
1267 479 1227Q519 1244 580 1268Q596 1274 604 1274Q620 1274 631 1239Z" />
<glyph unicode="+" glyph-name="plus" horiz-adv-x="868" d="M522 524Q547 524 647 522Q739 520 750 541Q757 555 773 553Q788 552 788 537Q788 522 774 484T751 438Q736 425 696 428Q582 436 500 438Q494 415 471 303Q456 229 455 216Q453 197 465 188Q472 180
468 166Q465 151 453 151Q449 151 444 154Q433 160 381 182Q352 193 352 223Q352 242 367 285Q391 358 412 440Q371 442 287 442Q184 442 174 424Q167 412 150 415Q133 419 137 436Q141 448 152 506Q159 550 248 541Q337 532 434 528Q446 573 467 670Q485 763 471
774Q458 785 462 800Q466 815 481 813Q485 812 529 786T574 736Q574 723 567 700Q548 631 522 524Z" />
<glyph unicode="," glyph-name="comma" horiz-adv-x="410" d="M244 229Q252 215 223 162Q140 5 88 -158Q109 -168 72 -192T0 -211Q-15 -209 -15 -185Q-15 -156 16 -43Q61 118 102 172Q120 195 147 205Q239 237 244 229Z" />
<glyph unicode="-" glyph-name="hyphen" horiz-adv-x="743" d="M635 432Q632 414 625 348Q621 312 618 306Q611 293 582 293Q440 293 203 350Q171 358 154 358Q127 358 111 328Q105 318 97 318Q83 318 83 335Q83 339 84 342Q88 361 102 424Q113 469 126 469Q135
469 150 465Q385 395 516 393Q564 393 583 406Q594 413 606 440Q613 455 625 451Q637 448 635 432Z" />
<glyph unicode="." glyph-name="period" horiz-adv-x="410" d="M156 199Q181 190 181 165Q181 144 141 49Q110 -25 72 -25Q86 -25 0 -16Q-12 -15 -15 -4Q-19 7 -6 10Q46 128 57 174Q68 216 88 216Q105 216 156 199Z" />
<glyph unicode="/" glyph-name="slash" horiz-adv-x="819" d="M967 1266L293 252Q164 58 164 -19Q164 -25 167 -35T170 -53Q170 -89 135 -89Q116 -89 92 -72L35 -29Q11 -11 11 18Q11 46 35 82L719 1108Q824 1266 824 1345Q824 1354 820 1367T816 1388Q816 1417
842 1417Q850 1417 858 1413L958 1372Q985 1354 985 1327Q985 1302 967 1266Z" />
<glyph unicode="0" glyph-name="zero" horiz-adv-x="866" d="M840 858Q840 541 727 260Q606 -39 451 -39Q327 -39 219 8Q177 27 182 41Q108 89 88 114Q56 155 56 232Q56 277 66 346Q88 501 185 702Q278 893 360 971Q400 1008 434 1008Q449 1008 563 954Q579 956
641 964Q692 970 720 970Q840 970 840 858ZM709 784Q709 897 612 897Q587 897 528 889Q499 899 492 897Q481 897 418 838Q322 748 252 552Q184 363 184 205Q184 154 226 108Q264 65 319 45Q348 35 373 35Q439 35 508 111Q590 201 650 404Q709 604 709 784Z" />
<glyph unicode="1" glyph-name="one" horiz-adv-x="516" d="M588 961Q607 948 607 934Q607 907 555 903Q463 781 388 569Q309 346 285 125Q278 62 297 29Q304 17 304 4Q304 -26 273 -26Q258 -26 236 -16Q171 12 160 21Q136 39 136 77Q136 105 147 162Q217 502
319 705Q221 596 86 457Q73 446 56 446Q22 446 22 475Q22 490 39 504Q219 648 373 926Q388 953 395 957Q404 961 428 952Q452 1004 488 1004Q523 1004 588 961Z" />
<glyph unicode="2" glyph-name="two" horiz-adv-x="895" d="M848 -121Q841 -144 817 -147Q800 -147 784 -121Q780 -110 775 -99Q764 -85 721 -72Q452 13 222 13Q186 13 152 10Q135 -8 96 -49Q80 -65 35 -55Q-9 -39 -6 -2Q-1 70 16 121T93 172Q104 172 211 162Q428
337 602 553Q692 665 692 793Q692 833 683 847Q668 869 620 869Q602 869 580 866Q458 852 305 733Q269 705 269 675Q269 677 279 621Q284 589 267 589Q251 589 231 608Q207 632 170 678Q141 721 141 747Q141 774 172 797Q472 1013 637 1008Q676 1006 717 934Q798
952 787 952Q831 952 831 829Q831 722 819 685Q795 611 692 506Q489 298 301 147Q547 130 799 29Q861 4 861 -53Q861 -73 848 -121Z" />
<glyph unicode="3" glyph-name="three" horiz-adv-x="784" d="M705 242Q727 203 727 158Q727 89 678 35Q534 -122 335 -247Q117 -385 -20 -385Q-85 -385 -144 -338Q-157 -327 -236 -246Q-251 -229 -251 -214Q-251 -190 -224 -190Q-212 -190 -201 -197Q-115 -248
-64 -248Q0 -248 121 -201Q269 -143 410 -41T608 154Q636 197 636 232Q636 279 590 307Q481 375 344 375Q318 375 291 373Q276 372 248 366T208 359Q182 359 178 383Q170 429 170 492Q170 520 221 545Q370 616 422 650Q511 707 563 786Q583 817 583 838Q583 875
526 875Q463 875 383 834Q224 750 209 686Q202 658 184 658Q173 658 164 672Q111 749 111 769Q111 803 156 836Q302 942 451 989Q489 1001 513 1001Q544 1001 562 979Q578 952 594 926Q684 865 684 797Q684 750 635 707Q518 604 309 477Q542 453 682 356Q726 326
726 300Q726 286 705 242Z" />
<glyph unicode="4" glyph-name="four" horiz-adv-x="948" d="M860 127Q866 99 866 91Q866 57 805 47Q739 37 651 37Q620 -109 610 -238Q608 -269 613 -276T625 -291Q628 -296 628 -302Q628 -332 597 -332Q590 -332 584 -330Q547 -316 494 -285Q476 -265 476 -242Q476
-215 537 35Q232 26 80 39Q70 12 62 7Q53 2 18 8Q-6 13 -14 29Q-24 49 -27 115Q-29 170 16 180Q93 249 160 323Q319 499 401 670Q401 670 344 760Q340 767 340 773Q340 800 381 795Q395 793 420 829Q469 902 539 1018Q552 1045 578 1045Q593 1045 655 1014Q678
1002 678 984Q678 969 664 934Q590 753 420 513Q276 308 164 197Q149 179 186 174Q415 146 571 162Q646 442 729 631Q753 686 783 697Q788 698 836 698Q867 698 867 688Q867 681 848 662Q811 624 758 464Q710 323 678 172Q771 172 791 215Q793 225 813 236Q836
236 842 215Q851 171 860 127Z" />
<glyph unicode="5" glyph-name="five" horiz-adv-x="891" d="M840 870Q840 828 796 828Q784 828 770 831Q478 893 352 893Q319 893 309 870Q202 616 176 514Q179 509 182 503Q190 504 211 516Q473 660 572 660Q648 660 678 582Q753 550 779 528Q812 499 812 455Q812
424 797 375Q729 163 555 -61Q406 -252 229 -396Q64 -529 -16 -537Q-56 -540 -90 -510Q-168 -441 -193 -401Q-201 -388 -201 -376Q-201 -348 -175 -348Q-166 -348 -156 -354Q-97 -391 -51 -391Q17 -391 170 -272Q333 -145 466 23Q623 220 670 395Q678 425 678 449Q678
537 585 537Q559 537 528 528Q388 489 217 362Q214 361 198 336T169 310Q160 310 150 322Q109 370 76 453Q63 486 84 528Q190 740 213 879Q213 882 194 923T174 987Q174 996 178 1007Q193 1043 283 1028Q541 985 735 985Q762 1039 786 1038Q809 1037 816 1033T827
1008Q840 930 840 870Z" />
<glyph unicode="6" glyph-name="six" horiz-adv-x="924" d="M870 598Q843 454 740 279Q643 115 543 27Q479 -30 394 -30Q339 -30 291 -8Q61 13 61 150Q61 466 184 793Q288 1070 444 1273Q588 1462 676 1464Q739 1466 856 1378Q871 1367 871 1354Q871 1331 846
1337Q791 1350 711 1329Q649 1313 529 1151Q393 967 304 740Q195 460 195 193Q195 71 276 49Q293 45 311 45Q376 45 444 96Q524 156 624 337T748 647Q752 673 752 691Q752 742 714 742Q695 742 643 725Q519 685 406 616Q397 611 387 611Q355 611 355 640Q355 653
369 664Q488 756 618 811Q658 828 689 828Q739 828 784 766Q852 739 858 735Q881 719 881 682Q881 655 870 598Z" />
<glyph unicode="7" glyph-name="seven" horiz-adv-x="838" d="M893 930Q898 877 877 852Q875 850 827 817Q783 787 509 267Q229 -265 174 -438Q158 -481 143 -524Q129 -562 131 -588Q134 -631 119 -631Q109 -631 90 -614Q46 -576 6 -504Q-10 -475 -10 -456Q-10
-423 29 -354Q200 -50 224 -8Q342 194 725 827Q579 856 367 848Q239 843 178 715Q162 680 134 680Q111 680 111 709Q111 716 113 725Q141 853 178 948Q202 1009 270 1009Q300 1009 350 1001Q488 981 762 948Q780 996 784 1000Q797 1018 831 1018Q866 1018 877 1003T893
930Z" />
<glyph unicode="8" glyph-name="eight" horiz-adv-x="973" d="M1022 1124Q953 1047 803 923T627 770Q631 767 742 682Q808 631 858 573Q904 520 904 448Q904 316 762 186Q526 -29 281 -29Q218 -29 166 63Q110 107 54 151Q4 197 4 246Q4 286 35 340Q92 438 272
588Q383 679 494 770Q351 868 352 1012Q354 1231 627 1440Q673 1475 708 1475Q757 1475 831 1403Q845 1390 845 1380Q845 1361 817 1361Q811 1361 798 1363T778 1365Q668 1365 564 1213Q469 1076 469 975Q469 928 500 887Q528 857 555 827Q692 944 797 1064Q920
1204 926 1274Q927 1285 927 1295Q927 1342 881 1376Q869 1387 869 1402Q869 1433 900 1433Q913 1433 928 1423Q1075 1324 1075 1239Q1075 1184 1022 1124ZM788 506Q788 587 565 709Q497 652 433 588Q281 436 178 274Q154 237 154 199Q154 98 315 98Q457 98 622
240T788 506Z" />
<glyph unicode="9" glyph-name="nine" horiz-adv-x="932" d="M909 737Q841 324 580 -133T147 -600Q63 -605 -59 -504Q-74 -491 -74 -476Q-74 -451 -42 -451Q-36 -451 -29 -453Q68 -469 111 -453Q286 -384 503 0Q724 391 764 719Q766 739 766 757Q766 832 730 875T637
918Q576 918 518 868Q405 772 311 632Q194 457 176 303Q167 227 234 227Q265 227 309 246Q416 292 549 385Q568 398 583 398Q603 398 603 381Q603 364 582 342Q434 184 356 135Q316 110 281 110Q230 110 150 172Q115 182 81 191Q33 211 33 279Q33 308 41 346Q73
499 200 692Q320 875 428 952Q499 1003 543 1003Q572 1003 629 979Q633 986 644 989Q675 996 743 969Q845 928 880 894T916 806Q916 780 909 737Z" />
<glyph unicode=":" glyph-name="colon" horiz-adv-x="410" d="M293 608Q319 599 319 574Q319 552 279 459Q246 384 208 384Q222 384 137 393Q126 394 122 406Q118 417 131 420Q180 531 195 584Q206 626 225 626Q242 626 293 608ZM156 199Q181 190 181 165Q181
144 141 49Q110 -25 72 -25Q86 -25 0 -16Q-12 -15 -15 -4Q-19 7 -4 10Q21 71 57 174Q68 216 88 216Q105 216 156 199Z" />
<glyph unicode=";" glyph-name="semicolon" horiz-adv-x="410" d="M293 608Q319 599 319 574Q319 552 279 459Q246 384 208 384Q222 384 137 393Q126 394 122 406Q118 417 131 420Q180 531 195 584Q206 626 225 626Q242 626 293 608ZM244 229Q252 215 223 162Q140
5 88 -158Q109 -168 72 -192T0 -211Q-15 -209 -15 -185Q-15 -156 16 -43Q61 118 102 172Q120 195 147 205Q239 237 244 229Z" />
<glyph unicode="&lt;" glyph-name="less" horiz-adv-x="606" d="M469 719Q485 747 498 747Q514 747 530 708T547 658Q547 637 494 614Q399 576 256 530Q235 526 268 494Q386 380 459 279Q483 245 483 235Q483 224 451 217Q427 212 414 212Q394 212 381 248Q361
304 188 485Q173 501 139 518Q116 530 109 555T101 585Q103 593 121 596Q215 612 326 650T469 719Z" />
<glyph unicode="=" glyph-name="equal" horiz-adv-x="868" d="M815 639Q815 624 801 586Q788 552 776 545T723 541Q503 555 313 555Q211 555 201 537Q194 525 177 528Q160 532 164 549Q167 556 178 608Q186 652 274 643Q434 627 674 625Q766 624 776 643Q784 657
799 656Q815 654 815 639ZM774 424Q774 419 760 382T736 336Q722 323 682 326Q462 340 272 340Q170 340 160 322Q153 310 136 313Q119 317 123 334Q126 346 137 403Q142 432 177 434Q178 434 233 428Q393 412 633 410Q725 409 735 428Q743 442 758 441Q774 439
774 424Z" />
<glyph unicode="&gt;" glyph-name="greater" horiz-adv-x="606" d="M534 380T533 376Q532 368 514 365Q420 349 310 311Q197 272 166 242Q150 214 137 214Q121 214 104 253T87 302Q87 324 141 346Q236 385 379 430Q400 434 367 467Q249 581 176 682Q152 716 152
725Q152 737 184 743Q208 748 221 748Q241 748 254 713Q274 657 446 475Q461 459 495 442Q519 431 526 406Z" />
<glyph unicode="?" glyph-name="question" horiz-adv-x="956" d="M971 1184Q971 1087 814 857Q675 654 520 492Q528 494 579 512Q623 528 631 528Q659 528 659 500Q659 480 633 471Q468 413 406 356Q384 337 368 337Q337 337 305 430Q303 436 303 441Q303 459
360 506Q509 628 653 824Q808 1035 819 1153Q829 1253 725 1253Q696 1253 668 1241Q448 1148 289 963Q275 947 275 926Q275 914 280 895T285 868Q285 844 259 844Q237 844 215 870Q149 951 149 978Q149 1005 184 1040Q418 1276 623 1350Q672 1367 705 1367Q761
1367 825 1280Q879 1271 920 1247Q971 1219 971 1184ZM479 147Q500 132 500 115Q500 90 412 12Q360 -33 330 -33Q317 -33 223 12Q215 15 211 22T210 35Q214 41 225 39Q276 84 356 166Q379 195 393 195Q413 195 479 147Z" />
<glyph unicode="@" glyph-name="at" horiz-adv-x="1217" d="M856 440Q831 418 824 418Q815 418 789 437Q767 454 772 485Q804 672 846 780Q784 680 680 562Q588 457 547 430Q516 410 502 410Q489 410 465 430Q412 459 418 508Q450 759 688 981Q723 1013 758 1012Q782
1011 854 946Q861 940 861 934Q861 914 836 924Q785 943 756 922Q690 873 610 752Q517 612 498 502Q493 474 512 474Q537 474 569 506Q646 581 736 699T854 879Q863 902 879 942Q888 975 899 975Q903 975 946 946Q979 920 969 893Q914 743 868 512Q901 531 961
571Q1036 634 1063 688Q1144 850 1137 1018Q1132 1118 1095 1172Q1063 1218 985 1257Q932 1285 864 1282Q593 1272 367 782Q255 540 255 362Q255 307 264 256Q279 176 503 176Q609 176 676 199Q767 229 861 301T1001 451Q1018 479 1033 486Q1047 493 1047 475Q1047
462 1038 440Q988 305 883 219Q845 188 783 154Q711 114 700 106Q660 79 542 79Q394 79 352 131Q186 140 156 305Q151 329 151 366Q151 596 250 815Q345 1027 493 1184Q660 1362 811 1368Q858 1370 907 1356T948 1323Q1119 1282 1180 1235Q1271 1166 1266 1016Q1258
787 1085 614Q1052 591 977 537Q936 506 856 440Z" />
<glyph unicode="A" glyph-name="A" horiz-adv-x="1311" d="M1280 1311Q1218 1222 1163 834Q1115 491 1118 299Q1122 107 1181 107Q1192 107 1212 115T1244 123Q1264 123 1264 108Q1264 97 1249 84Q1199 40 1096 -14Q1071 -27 1053 -27Q955 -27 983 469Q743 455
530 430L332 188Q385 194 372 194Q420 194 446 96Q453 73 453 60Q453 36 432 36Q422 36 403 41T372 46Q287 46 143 -45Q100 -72 100 -72Q92 -72 70 -57Q23 -25 4 20Q-8 51 39 82Q101 122 209 217T350 354Q341 445 341 449Q343 506 384 523Q420 538 512 543Q760
845 911 1133Q862 1107 735 1066Q532 1000 455 973Q346 934 346 837Q346 817 350 793Q356 756 331 756Q313 756 305 772Q250 887 240 934Q231 976 231 978Q231 1013 264 1042Q324 1093 492 1118Q744 1156 926 1237Q948 1259 950 1262Q955 1269 960 1289T980 1309Q1003
1309 1049 1260Q1064 1243 1064 1226Q1064 1216 1030 1157Q956 1026 832 840Q694 632 618 545Q856 545 991 557Q1005 697 1052 956Q1076 1083 1100 1210Q1115 1318 1245 1368Q1265 1376 1278 1376Q1300 1376 1300 1357Q1300 1339 1280 1311Z" />
<glyph unicode="B" glyph-name="B" horiz-adv-x="1325" d="M1266 1165Q1251 905 1085 739Q1048 702 986 672Q930 644 893 641Q1132 494 1217 379Q1254 328 1254 286Q1254 227 1178 129Q1188 112 1188 96Q1188 -27 733 -27Q638 -27 528 -21T410 29Q402 69 426 137Q437
170 466 170Q454 170 532 160Q555 157 579 118T664 72Q702 68 751 68Q965 68 1081 121Q1139 147 1139 199Q1139 260 1071 332Q1027 379 896 474Q753 577 698 594Q598 594 598 631Q598 644 686 713Q707 729 727 729Q747 729 774 713Q798 700 821 686Q919 691 1006
795Q1053 852 1097 959Q1147 1080 1147 1165Q1147 1222 1113 1237Q1092 1247 1032 1243Q992 1240 899 1218Q793 1193 741 1169Q655 859 518 495Q394 164 348 94Q318 49 304 40Q286 28 215 14Q167 5 167 21Q167 29 172 43Q229 203 229 279Q229 329 238 336Q242 339
322 367Q349 376 356 344Q445 525 529 777Q601 993 625 1116Q358 1002 260 877Q235 844 235 804Q235 779 250 719Q253 705 253 696Q253 677 240 677Q223 677 203 700Q103 818 103 878Q103 900 137 942Q203 1021 365 1123Q524 1223 655 1270Q665 1337 662 1354Q656
1382 679 1382Q690 1382 705 1368Q749 1324 743 1305Q962 1368 1044 1366Q1104 1364 1140 1332Q1163 1310 1198 1245Q1229 1247 1247 1230Q1268 1209 1266 1165Z" />
<glyph unicode="C" glyph-name="C" horiz-adv-x="1034" d="M1055 1153Q1007 958 944 852Q915 802 887 802Q876 802 860 807Q784 830 784 862Q784 878 805 883Q893 1015 909 1200Q854 1249 805 1249Q701 1250 559 1066Q428 894 332 658Q232 412 236 248Q237 153
293 106Q334 72 386 72Q416 72 455 84Q551 114 677 200Q797 282 877 367Q902 394 907 436Q910 458 927 458Q941 458 948 440Q984 350 984 315Q984 282 957 253Q939 235 872 184Q660 25 508 -14Q461 -26 422 -26Q340 -26 297 29Q102 102 102 252Q102 494 229 772Q338
1013 498 1196Q652 1371 748 1378Q783 1381 829 1349Q835 1345 922 1274Q927 1314 949 1314Q973 1314 1030 1270Q1066 1242 1066 1216Q1066 1199 1055 1153Z" />
<glyph unicode="D" glyph-name="D" horiz-adv-x="1311" d="M1380 1073Q1349 841 1230 572Q1122 327 990 153T778 -23Q679 -23 496 100Q482 110 482 123Q482 155 519 155Q529 155 539 150Q614 103 705 98Q830 92 1025 465Q1218 833 1249 1122Q1259 1215 1149 1260Q1122
1270 1104 1268Q911 1241 731 1128Q637 904 541 598Q436 264 389 20Q379 -30 347 -30Q335 -30 319 -23Q267 4 251 21Q229 44 229 84Q229 168 256 285Q263 314 277 314Q290 314 346 268Q482 731 604 1061Q381 921 260 791Q232 760 232 719Q232 682 256 635T280 581Q280
564 257 564Q237 564 227 575Q102 722 102 778Q102 837 182 909Q351 1062 672 1247Q725 1371 749 1371Q767 1371 823 1317Q878 1342 933 1367Q979 1387 1008 1387Q1056 1387 1137 1333Q1141 1337 1150 1337Q1206 1337 1321 1233Q1383 1176 1383 1110Q1383 1094
1380 1073Z" />
<glyph unicode="E" glyph-name="E" horiz-adv-x="1235" d="M1323 1235Q1331 1192 1331 1172Q1331 1149 1319 1136Q1317 1134 1280 1106Q1250 1083 1192 1098Q1007 1145 770 1184Q702 908 670 768Q780 777 1047 791Q1103 792 1122 754Q1125 748 1139 686Q1140 678
1140 672Q1140 638 1061 625Q977 610 965 634Q951 664 911 664Q689 664 639 655L559 406Q524 304 498 265T412 184Q447 186 488 186Q653 186 1034 152Q1065 149 1071 182T1092 217Q1119 219 1126 195Q1136 152 1153 80Q1158 60 1135 39Q1113 22 1093 5T1057 -11Q1053
-10 999 4Q784 62 517 62Q408 62 283 53Q199 -20 178 -20Q161 -20 156 6Q137 100 137 111Q137 149 180 162Q219 174 354 180Q459 374 516 563Q510 581 485 635Q470 671 470 687Q470 725 547 744Q562 748 580 752Q626 928 694 1202Q551 1227 482 1227Q436 1227 389
1221Q279 1205 279 1074Q279 1015 301 928Q311 889 284 889Q265 889 258 913Q216 1051 216 1145Q216 1212 236 1274Q265 1366 409 1366Q515 1366 727 1325Q779 1363 799 1363Q813 1363 813 1345Q813 1332 805 1309Q845 1297 1200 1217Q1246 1206 1272 1251Q1283
1267 1297 1267Q1317 1267 1323 1235Z" />
<glyph unicode="F" glyph-name="F" horiz-adv-x="1229" d="M1419 1276Q1421 1267 1421 1260Q1421 1231 1386 1221Q1384 1220 1315 1210Q1160 1188 934 1169Q875 1043 764 653Q953 670 1147 674Q1205 675 1224 637Q1228 629 1239 571Q1241 563 1241 557Q1241 523
1163 510Q1107 500 1096 501Q1077 502 1067 520Q1053 547 1014 547Q796 547 729 539Q693 447 602 43Q585 -32 553 -32Q532 -32 467 -10Q428 3 438 78Q452 174 477 264Q489 306 559 293Q582 345 614 459Q572 567 572 570Q572 576 573 582Q579 615 672 635Q677 652
836 1157Q678 1145 527 1109Q356 1069 301 1020Q243 968 243 915Q243 858 309 735Q316 723 316 711Q316 686 293 686Q277 686 264 705Q185 818 161 881Q144 925 137 1008Q127 1131 336 1188Q610 1263 893 1288Q925 1353 941 1353Q964 1353 1020 1303Q1046 1303
1182 1323Q1205 1327 1230 1358Q1252 1387 1335 1391Q1381 1393 1398 1357Q1400 1352 1419 1276Z" />
<glyph unicode="G" glyph-name="G" horiz-adv-x="1237" d="M1210 690Q1240 677 1240 655Q1240 629 1200 623Q1131 612 1114 585Q1106 572 1083 469Q997 81 889 -190Q854 -277 791 -277Q736 -277 578 -176Q562 -166 562 -153Q562 -132 591 -132Q602 -132 628 -142T672
-152Q723 -152 766 -88Q869 66 985 496Q862 354 709 236Q504 78 375 78Q301 78 254 131Q174 179 143 218Q98 274 102 354Q114 569 264 821Q394 1039 574 1207Q748 1368 848 1374Q899 1377 1004 1300Q1012 1354 1033 1354Q1053 1354 1104 1329Q1123 1320 1126 1309Q1132
1289 1122 1217Q1107 1100 1063 991Q1051 961 1019 961Q1001 961 946 973Q911 980 911 1002Q911 1019 931 1019Q936 1019 940 1018Q978 1112 987 1221Q991 1263 938 1263Q888 1263 823 1229Q634 1127 452 870T236 395Q230 361 230 333Q230 234 311 180Q333 166
364 166Q479 166 691 341Q852 472 965 606Q760 590 737 590Q685 590 664 607Q648 620 631 668Q625 684 625 693Q625 705 636 705Q637 705 700 684Q727 675 861 681Q985 687 1030 694Q1051 731 1083 731Q1118 731 1210 690Z" />
<glyph unicode="H" glyph-name="H" horiz-adv-x="1436" d="M1714 1341Q1738 1327 1738 1313Q1738 1294 1698 1294Q1637 1294 1649 1296Q1617 1292 1587 1264Q1516 1196 1423 962Q1305 665 1204 211L1272 330Q1292 364 1313 364Q1325 364 1325 348Q1325 336 1317
315Q1262 185 1260 179Q1222 83 1214 31Q1206 -29 1184 -29Q1167 -29 1092 12Q1072 23 1072 87Q1072 207 1143 514Q768 537 582 504Q539 393 457 217T340 -14Q309 -64 264 -49Q164 -16 164 14Q164 31 178 61Q204 105 238 180Q240 189 240 254Q240 284 258 284Q271
284 307 243Q332 216 328 197Q387 266 440 416Q387 526 387 556Q387 622 528 618Q577 727 651 930Q728 1142 748 1225Q733 1204 589 1154Q408 1092 348 1063Q241 1010 241 944Q241 916 256 868Q258 862 258 856Q258 835 237 835Q219 835 209 852Q185 893 162 962Q135
1040 137 1079Q142 1155 356 1202Q499 1233 641 1263Q736 1290 774 1348Q796 1380 804 1380Q819 1380 862 1348Q878 1336 878 1308Q878 1256 780 997Q733 885 625 612Q897 586 1169 606Q1234 847 1317 1056Q1451 1392 1552 1399Q1613 1403 1714 1341Z" />
<glyph unicode="I" glyph-name="I" horiz-adv-x="848" d="M877 1024Q842 733 693 376Q518 -45 354 -47Q255 -48 113 59Q102 68 102 82Q102 117 134 117Q142 117 150 113Q236 69 297 68Q430 64 590 463Q743 848 754 1153Q757 1252 656 1252Q640 1252 621 1249Q543
1238 444 1125Q334 999 289 838Q283 817 283 798Q283 761 308 730Q331 707 354 684Q365 673 365 664Q365 645 335 645Q323 645 315 649Q229 700 197 732Q159 771 159 821Q159 868 195 950Q247 1071 350 1187Q448 1298 526 1331Q562 1347 674 1313Q681 1322 695
1322Q734 1322 848 1247Q899 1214 877 1024Z" />
<glyph unicode="J" glyph-name="J" horiz-adv-x="893" d="M899 977Q851 637 688 239Q493 -240 317 -238Q216 -236 80 -109Q69 -98 69 -81Q69 -50 94 -50Q102 -50 111 -55Q206 -113 266 -117Q400 -125 582 333Q758 779 782 1141Q787 1207 749 1231Q717 1251 641
1247Q565 1243 461 1132Q347 1009 297 848Q290 825 290 804Q290 761 354 692Q365 681 365 672Q365 653 335 653Q323 653 315 657Q165 753 165 830Q165 879 205 963Q262 1081 369 1193Q471 1300 549 1331Q564 1337 582 1337Q618 1337 696 1309Q703 1316 717 1316Q757
1316 868 1237Q908 1208 908 1097Q908 1043 899 977Z" />
<glyph unicode="K" glyph-name="K" horiz-adv-x="1503" d="M1468 1346Q1488 1326 1488 1313Q1488 1297 1446 1245Q1336 1109 1122 898Q917 696 844 647Q935 518 1026 388Q1165 192 1266 125Q1310 95 1345 95Q1380 95 1427 129Q1437 136 1446 136Q1467 136 1467
115Q1467 103 1458 90Q1428 43 1327 -47Q1304 -68 1282 -68Q1256 -68 1223 -41Q1100 57 947 272Q787 497 725 551Q693 538 674 538Q639 538 635 590Q634 606 634 617Q634 659 656 678T748 713Q773 718 786 700Q904 791 1053 945Q1200 1096 1231 1157Q1168 1194
1168 1218Q1168 1237 1204 1245Q1254 1280 1323 1358Q1352 1391 1385 1391Q1423 1391 1468 1346ZM879 1266Q753 1040 637 735Q537 474 479 227Q440 61 444 20Q450 4 450 -9Q450 -30 433 -30Q412 -30 365 6Q313 45 313 70Q313 86 322 117Q404 406 526 729Q606 929
700 1165Q414 1095 291 997Q246 962 246 930Q246 908 266 813Q273 782 244 782Q224 782 213 801Q179 855 143 958Q136 981 136 1000Q136 1075 252 1122Q293 1139 666 1262Q754 1291 786 1331Q809 1359 826 1359Q842 1359 866 1341Q894 1321 894 1307Q894 1294 879
1266Z" />
<glyph unicode="L" glyph-name="L" horiz-adv-x="1087" d="M1133 1225Q1134 1070 1067 877Q1049 825 1018 825Q1020 825 963 831Q915 837 915 861Q915 872 932 883Q955 922 980 1028Q1008 1148 1004 1225Q1000 1283 945 1283Q914 1283 877 1255Q754 1163 635 919Q520
683 365 213Q342 144 291 129Q555 129 850 98Q895 94 907 103Q912 107 932 150Q944 176 957 176Q970 176 981 154Q1024 71 1024 37Q1024 9 985 -27Q942 -66 920 -66Q903 -66 866 -55Q632 10 350 10Q273 10 199 4Q149 0 140 -7Q140 -7 121 -39Q95 -83 59 -83Q36
-83 29 -61Q0 22 0 45Q0 120 217 129Q386 724 576 1072Q738 1369 852 1384Q884 1389 1018 1325Q1051 1327 1068 1327Q1113 1327 1124 1307Q1132 1291 1133 1225Z" />
<glyph unicode="M" glyph-name="M" horiz-adv-x="1907" d="M2120 1296Q2127 1290 2127 1282Q2127 1262 2095 1262Q2089 1262 2077 1264T2057 1266Q2010 1266 1962 1174Q1767 796 1708 233Q1731 276 1769 348Q1780 370 1796 370Q1815 370 1815 345Q1815 333 1808
317Q1764 213 1727 18Q1718 -25 1688 -25Q1654 -25 1585 27Q1552 52 1547 67Q1541 81 1548 125Q1584 342 1641 614Q1707 925 1737 981Q1632 857 1479 617Q1329 381 1217 168Q1237 106 1237 75Q1237 36 1171 -25Q1137 -57 1126 -57Q1115 -57 1067 23Q1046 57 1046
77Q1046 91 1075 145Q1011 383 842 725Q734 453 623 229Q695 148 695 120Q695 98 645 92Q540 80 469 -16Q463 -47 439 -47Q405 -47 334 14Q312 33 312 45Q312 56 330 72Q397 130 483 184Q669 493 786 834Q664 1102 483 1208Q453 1226 426 1226Q388 1226 346 1187Q307
1145 268 1102Q246 1077 223 1077Q205 1077 205 1095Q205 1104 211 1116Q346 1387 469 1382Q615 1377 848 1020Q905 1150 905 1255Q905 1309 921 1309Q936 1309 991 1266Q1007 1253 1006 1212Q1004 1160 913 909Q1089 567 1180 285Q1533 871 1815 1200Q1850 1280
1901 1358Q1923 1392 1954 1392Q2001 1392 2120 1296Z" />
<glyph unicode="N" glyph-name="N" horiz-adv-x="1432" d="M1589 1296Q1603 1280 1603 1261Q1603 1226 1550 1164Q1510 1122 1470 1079Q1389 850 1321 586Q1240 274 1237 129Q1254 83 1254 67Q1254 27 1180 -23Q1166 -32 1153 -32Q1136 -32 1121 -14Q1111 -3 1102
8Q1087 18 1102 94Q1014 326 855 624Q718 880 659 954Q618 822 510 547Q453 400 395 254Q422 264 479 152Q485 141 485 134Q485 117 456 116Q475 117 408 117Q346 117 303 74Q303 74 278 17Q260 -25 227 -25Q214 -25 197 -18Q95 23 96 63Q98 115 254 209Q336 356
463 682Q565 942 596 1047Q526 1159 453 1200Q425 1215 404 1215Q361 1215 289 1161Q270 1147 252 1147Q229 1147 229 1168Q229 1186 250 1206Q360 1312 386 1332Q442 1377 481 1372Q542 1365 641 1227Q662 1279 653 1307Q652 1312 652 1316Q652 1329 663 1329Q682
1329 721 1296Q741 1279 741 1249Q741 1224 728 1185Q717 1156 707 1126Q843 936 988 672Q1121 428 1167 297Q1202 524 1337 1047Q1312 1063 1274 1096Q1257 1114 1257 1126Q1257 1143 1291 1141T1462 1311Q1493 1349 1514 1349Q1543 1349 1589 1296Z" />
<glyph unicode="O" glyph-name="O" horiz-adv-x="1194" d="M1280 1143Q1244 831 1073 464Q850 -18 580 -29Q528 -31 481 -21Q427 -11 434 6Q270 46 207 99Q120 172 125 324Q135 614 298 945Q429 1211 551 1323Q602 1370 645 1370Q688 1370 732 1346Q750 1336 846
1272Q924 1357 979 1395Q1012 1417 1047 1417Q1106 1417 1153 1358Q1236 1353 1260 1336Q1289 1317 1289 1256Q1289 1221 1280 1143ZM1147 1227Q1152 1302 1112 1302Q1080 1302 1016 1257Q872 1158 668 965Q645 943 627 942Q610 940 610 957Q610 973 625 995Q712
1131 803 1231Q751 1270 710 1270Q685 1270 666 1255Q555 1174 415 896Q248 567 260 319Q265 218 299 166Q329 121 406 82Q467 51 526 57Q730 79 930 474Q1120 850 1147 1227Z" />
<glyph unicode="P" glyph-name="P" horiz-adv-x="1159" d="M1274 1024Q1248 916 1139 749T948 524Q891 483 836 483Q804 483 682 532Q658 542 658 555Q658 575 713 575Q804 575 852 612Q948 685 1034 812Q1144 973 1165 1128Q1177 1213 1107 1230Q1075 1237 1042
1231Q887 1223 743 1163Q576 560 436 199Q444 202 495 233Q524 250 541 248Q570 243 598 190Q621 147 621 126Q621 99 586 102Q561 105 503 74Q440 41 395 -4Q373 -26 349 -26Q316 -26 268 18Q238 47 242 68Q245 85 274 92Q518 654 637 1120Q261 951 261 805Q261
784 268 764Q270 756 287 713Q291 703 291 694Q291 666 269 666Q238 666 150 840Q137 864 137 888Q137 947 211 1016Q262 1063 403 1144Q555 1230 674 1274Q686 1323 686 1354Q686 1394 706 1394Q733 1394 801 1321Q966 1369 1024 1368Q1135 1366 1182 1251Q1242
1207 1262 1182Q1287 1151 1287 1108Q1287 1077 1274 1024Z" />
<glyph unicode="Q" glyph-name="Q" horiz-adv-x="1239" d="M1280 1143Q1257 951 1160 678Q1036 332 877 145Q931 133 980 133Q1106 133 1190 213Q1200 223 1210 223Q1228 223 1228 201Q1228 194 1225 186Q1199 126 1149 55Q1102 -11 1042 -11Q1020 -11 979 -6Q964
-6 762 39Q677 -26 580 -29Q528 -30 481 -21Q427 -11 434 6Q270 46 207 99Q120 172 125 324Q135 614 298 945Q429 1211 551 1323Q602 1370 645 1370Q688 1370 732 1346Q750 1336 846 1272Q924 1357 979 1395Q1012 1417 1047 1417Q1106 1417 1153 1358Q1236 1353
1260 1336Q1289 1317 1289 1256Q1289 1221 1280 1143ZM1147 1227Q1152 1302 1112 1302Q1080 1302 1016 1257Q872 1158 668 965Q645 943 627 942Q610 940 610 957Q610 973 625 995Q712 1131 803 1231Q751 1270 710 1270Q685 1270 666 1255Q555 1174 415 896Q248
567 260 319Q265 218 299 166Q329 121 406 82Q465 52 526 57Q570 61 616 86Q577 100 473 147Q445 160 445 223Q445 264 455 301Q457 319 473 323Q486 326 496 317Q581 236 733 180Q888 344 1007 648T1147 1227Z" />
<glyph unicode="R" glyph-name="R" horiz-adv-x="1446" d="M1651 -102Q1563 -257 1491 -262Q1447 -265 1386 -213Q1022 102 659 608Q625 489 542 278Q466 86 426 6Q404 -38 382 -38Q370 -38 352 -25Q287 24 287 56Q287 75 299 104Q325 162 354 260Q355 285 356
309Q358 326 373 330Q386 333 430 266Q506 427 600 690Q546 773 546 792Q546 815 641 823Q683 945 733 1135Q569 1073 489 1029Q366 962 295 870Q265 832 265 782Q265 743 303 629Q314 596 284 596Q265 596 252 616Q194 703 160 793Q136 855 136 873Q136 924 207
989Q409 1175 756 1280Q761 1289 771 1351Q779 1399 795 1397Q814 1394 856 1315Q1085 1370 1143 1366Q1233 1360 1282 1239Q1343 1196 1362 1167Q1389 1129 1389 1065Q1389 954 1253 785Q1114 612 1014 612Q959 612 912 638Q876 662 840 686Q826 695 826 707Q826
733 859 733Q867 733 893 725T939 716Q1038 716 1163 877Q1276 1021 1276 1116Q1276 1231 1116 1231Q982 1231 821 1167Q775 967 709 774Q906 479 1157 203Q1426 -91 1524 -98Q1565 -101 1608 -68Q1626 -53 1641 -53Q1661 -53 1661 -72Q1661 -85 1651 -102Z" />
<glyph unicode="S" glyph-name="S" horiz-adv-x="1120" d="M1294 1221Q1255 1084 1188 983Q1158 938 1131 938Q1105 938 1040 981Q1020 994 1020 1008Q1020 1029 1055 1038Q1081 1046 1114 1129Q1145 1208 1145 1253Q1145 1300 1108 1300Q1095 1300 1075 1296Q1036
1290 907 1243Q892 1238 880 1238Q850 1238 850 1258Q850 1277 881 1292Q993 1348 1102 1386Q1137 1399 1152 1399Q1175 1399 1212 1335Q1268 1318 1281 1310Q1303 1297 1303 1270Q1303 1251 1294 1221ZM995 303Q995 122 811 12Q758 -71 674 -70Q525 -68 342 63Q185
175 125 279Q68 376 68 401Q68 432 113 471Q155 508 179 508Q202 508 202 478Q202 465 197 446Q250 302 421 178T731 55Q854 56 854 223Q854 315 711 590T567 985Q567 1063 611 1124Q648 1175 741 1245Q758 1258 775 1258Q802 1258 802 1235Q802 1219 784 1202Q707
1129 707 1024Q707 907 851 638T995 303Z" />
<glyph unicode="T" glyph-name="T" horiz-adv-x="1163" d="M1446 1276Q1448 1267 1448 1260Q1448 1231 1412 1221Q1410 1220 1343 1210Q1166 1185 979 1169Q900 1000 785 621Q679 275 629 43Q612 -32 579 -32Q558 -32 494 -10Q471 -3 469 17Q471 -3 471 78Q471
225 518 346Q536 391 558 391Q564 391 581 387T610 381Q637 483 738 784Q852 1124 862 1157Q708 1145 554 1109Q383 1067 330 1020Q270 966 270 913Q270 856 336 735Q343 722 343 711Q343 686 320 686Q304 686 291 705Q212 818 188 881Q171 925 164 1008Q153 1130
365 1188Q641 1263 922 1288Q954 1353 969 1353Q992 1353 1047 1303Q1073 1303 1208 1323Q1232 1327 1257 1358Q1279 1387 1362 1391Q1407 1393 1424 1357Q1427 1352 1446 1276Z" />
<glyph unicode="U" glyph-name="U" horiz-adv-x="1534" d="M1767 1264Q1775 1257 1775 1250Q1775 1229 1744 1229Q1736 1229 1721 1232T1697 1235Q1652 1235 1606 1147Q1395 747 1321 215Q1336 258 1354 284Q1370 307 1386 330Q1399 350 1414 350Q1431 350 1431
327Q1431 314 1423 297Q1358 154 1333 12Q1324 -43 1291 -43Q1256 -43 1190 12Q1148 47 1148 59Q1148 63 1152 77T1159 106Q1188 323 1278 657Q1060 259 870 43Q812 -23 748 -23Q683 -23 639 37Q535 119 516 145Q478 197 478 300Q478 323 479 350Q487 498 564 741Q640
980 739 1176Q462 1085 348 1004Q294 965 294 924Q294 925 322 817Q323 812 323 807Q323 789 306 789Q277 789 256 825Q171 970 171 1031Q171 1114 285 1149Q480 1201 776 1292Q824 1367 863 1367Q907 1367 989 1288Q1001 1277 1001 1268Q1001 1247 907 1227Q786
1029 697 719Q619 448 612 276Q609 188 648 136Q683 88 737 88Q789 88 829 135Q1006 343 1170 623Q1284 819 1460 1178Q1501 1261 1550 1333Q1572 1365 1602 1365Q1650 1365 1767 1264Z" />
<glyph unicode="V" glyph-name="V" horiz-adv-x="1356" d="M1608 1276Q1621 1257 1621 1243Q1621 1223 1534 1165Q1411 1019 1201 671Q976 297 889 78Q894 56 894 44Q894 11 831 -18Q806 -30 787 -30Q762 -30 721 16Q705 35 705 55Q705 84 733 109Q727 443 644
774Q570 1067 483 1192Q453 1236 403 1236Q349 1236 248 1161Q237 1153 222 1153Q193 1153 193 1174Q193 1186 209 1202Q294 1288 422 1360Q467 1386 495 1386Q540 1386 586 1319Q791 1018 870 248Q940 389 1135 734Q1314 1052 1339 1087Q1320 1084 1299 1125T1278
1206Q1278 1238 1297 1238Q1320 1237 1343 1237Q1370 1244 1413 1282Q1442 1307 1470 1333Q1499 1353 1514 1353Q1554 1353 1608 1276Z" />
<glyph unicode="W" glyph-name="W" horiz-adv-x="2011" d="M2120 944Q2131 931 2131 916Q2131 886 2106 886Q2099 886 2093 891Q2072 909 2040 930Q1867 293 1622 14Q1596 -15 1552 -15Q1510 -15 1464 8Q1324 49 1270 93Q1191 156 1184 285Q1181 322 1181 365Q1181
644 1260 944Q1150 826 1016 637Q859 416 799 274Q735 125 710 88Q690 59 641 35Q561 -5 531 -5Q510 -5 510 13Q510 27 522 53Q625 271 729 650T833 1194Q833 1220 829 1237Q725 1212 580 1145Q441 1081 346 1018Q295 983 295 925Q295 888 315 842Q320 832 320
825Q320 808 303 808Q285 808 268 829Q146 980 150 1024Q153 1076 276 1141Q365 1188 536 1244Q712 1301 760 1325Q765 1340 770 1355Q779 1378 802 1378Q838 1378 915 1321Q978 1275 978 1205Q978 1188 973 1137Q965 1061 905 830Q848 613 805 485Q892 612 1087
867Q1275 1114 1307 1145Q1339 1263 1349 1286Q1372 1338 1411 1338Q1424 1338 1440 1333Q1550 1299 1550 1267Q1550 1249 1526 1223L1457 1150V1150L1456 1149Q1319 702 1319 402Q1319 360 1321 319Q1327 215 1371 148T1475 82Q1545 83 1602 162Q1701 299 1807
543Q1928 820 1962 1030Q1915 1084 1915 1181Q1915 1262 1948 1382Q1965 1447 2001 1447Q2034 1447 2081 1391Q2116 1348 2116 1292Q2116 1257 2058 1010Q2072 996 2120 944Z" />
<glyph unicode="X" glyph-name="X" horiz-adv-x="1315" d="M1372 1315Q1402 1280 1402 1247Q1402 1199 1319 1106T860 723Q940 337 1024 205Q1085 109 1129 109Q1147 109 1217 143Q1231 150 1244 150Q1269 150 1269 132Q1269 120 1253 106Q1086 -35 1004 -35Q881
-35 745 635Q391 355 276 207T160 -20Q160 -35 169 -61Q176 -80 170 -84Q152 -97 127 -66T75 -3Q49 33 49 68Q49 114 92 170Q229 347 729 727Q684 965 664 1176Q576 1128 488 1081Q368 1012 328 958Q304 928 304 889Q304 852 336 782Q339 775 339 768Q339 744 318
744Q305 744 293 760Q185 903 185 974Q185 1035 256 1087Q320 1135 447 1183Q590 1237 649 1272Q657 1336 748 1389Q777 1405 794 1405Q816 1405 836 1358Q842 1343 842 1331Q842 1305 797 1272Q794 1250 794 1218Q794 1074 842 813Q1103 1015 1178 1096Q1091 1125
1091 1159Q1091 1168 1102 1176Q1111 1173 1143 1186Q1230 1250 1278 1333Q1298 1367 1309 1367Q1327 1367 1372 1315Z" />
<glyph unicode="Y" glyph-name="Y" horiz-adv-x="1366" d="M1516 1264Q1529 1248 1529 1229Q1529 1180 1407 1006Q1379 935 1249 507Q1121 87 1053 -80Q1009 -187 981 -225Q946 -274 900 -274Q832 -274 639 -137Q617 -121 617 -106Q617 -83 650 -83Q662 -83 674
-88Q780 -130 807 -130Q863 -130 905 -53Q1089 280 1231 786Q1041 452 817 223Q757 162 718 162Q686 162 643 207Q528 277 509 301Q476 343 479 457Q485 674 682 1159Q442 1070 330 983Q277 942 277 903Q277 900 309 795Q311 789 311 784Q311 768 294 768Q266 768
244 803Q151 948 151 1009Q151 1087 260 1124Q454 1184 748 1286Q792 1364 833 1364Q876 1364 958 1290Q972 1278 972 1268Q972 1246 883 1225Q763 1058 680 788Q608 553 608 408Q608 265 685 265Q722 265 760 303Q1115 660 1378 1210Q1404 1312 1444 1312Q1473
1312 1516 1264Z" />
<glyph unicode="Z" glyph-name="Z" horiz-adv-x="1120" d="M1290 1171Q1290 1128 1221 1073Q1189 1048 1159 1048Q1144 1048 1077 1063Q934 987 643 594Q860 589 967 580Q1008 576 1008 547Q1008 524 958 520Q762 505 561 481Q419 272 348 135Q523 135 864 76Q888
72 903 72Q928 72 942 96Q958 135 981 135Q1004 135 1011 119Q1026 67 1040 14Q1044 0 1044 -12Q1044 -40 1019 -61T969 -102Q954 -115 901 -96Q581 18 279 18Q251 -17 233 -25T166 -33Q122 -33 94 5T65 51Q65 64 84 90Q111 127 148 134Q162 137 229 135Q274 212
358 338Q359 394 349 457T339 528Q339 549 350 559Q375 582 532 590Q800 965 967 1104Q965 1104 753 1176Q614 1223 539 1223Q437 1223 389 1137Q326 1024 264 829Q253 793 222 793Q197 793 197 825Q197 832 199 842Q266 1133 348 1296Q393 1384 508 1384Q581 1384
790 1304Q1012 1219 1085 1210Q1142 1254 1186 1254Q1209 1254 1239 1245Q1293 1229 1293 1201Q1293 1196 1292 1187T1290 1171Z" />
<glyph unicode="[" glyph-name="bracketleft" horiz-adv-x="819" d="M930 1456Q954 1456 954 1430Q954 1399 924 1399Q827 1397 786 1365Q752 1339 719 1255Q696 1197 517 656Q345 133 326 68Q310 13 310 -20Q310 -106 436 -106Q466 -106 466 -137Q466 -164 440
-164Q274 -161 207 -166Q191 -172 177 -172Q135 -172 135 -124Q135 -111 139 -96Q154 -46 377 636Q597 1307 610 1346Q653 1469 704 1469Q714 1469 725 1464Q745 1456 781 1454Q806 1453 854 1454Q915 1456 930 1456Z" />
<glyph unicode="\" glyph-name="backslash" horiz-adv-x="819" d="M557 1341L471 250Q466 182 471 104Q477 -9 506 -29Q524 -41 524 -59Q524 -100 459 -94L385 -88Q319 -83 326 -4L416 1102Q433 1310 377 1346Q354 1360 354 1376Q354 1396 385 1401L496 1419Q552
1419 557 1341Z" />
<glyph unicode="]" glyph-name="bracketright" horiz-adv-x="819" d="M817 1401Q800 1345 578 668T344 -43Q298 -166 252 -166Q242 -166 231 -162Q212 -154 176 -152Q150 -150 103 -152Q42 -154 27 -154Q1 -154 1 -125Q1 -95 31 -94Q128 -92 169 -61Q204 -35 238
49Q260 106 439 647Q611 1171 631 1237Q646 1290 646 1323Q646 1409 518 1409Q489 1409 489 1439Q489 1467 514 1466Q651 1461 750 1468Q765 1475 778 1475Q821 1475 821 1426Q821 1414 817 1401Z" />
<glyph unicode="^" glyph-name="asciicircum" horiz-adv-x="922" d="M836 618Q876 606 876 593Q876 578 823 557Q761 532 745 532Q717 532 688 578Q642 649 573 803Q569 816 522 786Q395 691 221 567Q171 537 158 537Q144 537 135 567Q129 591 129 604Q129 630
178 639Q207 642 344 734Q461 813 522 862Q547 882 562 918Q574 945 607 956T649 967Q661 967 664 948Q687 855 740 752Q795 646 836 618Z" />
<glyph unicode="_" glyph-name="underscore" horiz-adv-x="1024" d="M1024 -369H0V-272H1024V-369Z" />
<glyph unicode="`" glyph-name="grave" horiz-adv-x="614" d="M580 1008Q583 1001 583 994Q583 972 562 972Q548 972 535 989Q464 1078 386 1139Q344 1171 317 1171Q276 1171 276 1198Q276 1204 285 1208L342 1235Q360 1243 374 1243Q401 1243 432 1210Q536 1101
580 1008Z" />
<glyph unicode="a" glyph-name="a" horiz-adv-x="797" d="M739 666Q647 411 612 238Q627 252 651 281T682 315Q696 333 712 333Q727 333 727 318Q727 309 719 297Q625 158 594 16Q585 -24 567 -24Q550 -24 504 8Q477 26 473 38Q468 49 473 82Q515 336 578 504Q491
363 341 192Q210 43 152 2Q110 -27 88 -27Q70 -27 33 2Q-20 34 -20 90Q-20 101 -18 115Q0 263 112 459T369 791Q416 835 453 834Q489 832 590 739Q599 731 599 722Q599 706 578 706Q570 706 563 709Q492 739 449 707Q355 638 241 464Q109 264 82 104Q81 97 81 91Q81
66 101 66Q135 66 182 113Q294 222 422 387Q553 558 590 645Q617 709 625 735Q638 780 653 780Q668 780 723 739Q746 722 748 708Q750 696 739 666Z" />
<glyph unicode="b" glyph-name="b" horiz-adv-x="858" d="M842 1552Q854 1543 854 1532Q854 1512 830 1512Q821 1512 811 1518Q765 1542 742 1542Q680 1542 604 1419Q334 982 213 272Q317 448 368 521Q472 671 584 772Q638 821 681 821Q703 821 750 793Q839 751
831 666Q814 472 734 285Q656 102 549 -2Q519 -31 487 -31Q422 -31 307 117Q294 134 294 146Q294 161 311 161Q328 161 344 147Q403 97 445 97Q486 97 524 145Q593 233 649 384Q713 554 713 688Q713 740 678 740Q658 740 633 719Q510 613 383 417Q249 208 188 14Q177
-23 160 -23Q152 -23 139 -14Q88 20 81 26Q61 46 61 78Q61 94 66 117Q183 754 366 1202Q504 1539 614 1640Q643 1667 670 1667Q698 1667 741 1634Q791 1593 842 1552Z" />
<glyph unicode="c" glyph-name="c" horiz-adv-x="602" d="M586 737Q586 582 543 487Q525 448 487 469Q431 500 431 520Q431 529 444 539Q478 635 475 688Q473 733 430 733Q425 733 415 735T399 738Q364 738 313 672Q257 598 206 466Q164 357 150 279Q139 223 139
177Q139 24 236 27Q321 29 485 240Q501 259 514 259Q527 259 527 243Q527 235 522 223Q469 93 383 -6Q362 -31 309 -31Q277 -31 231 -18Q139 -12 84 41Q25 98 29 190Q33 296 103 484Q178 688 260 780Q298 822 324 822Q350 822 426 778Q467 793 507 793Q586 793
586 737Z" />
<glyph unicode="d" glyph-name="d" horiz-adv-x="823" d="M1276 1552Q1288 1543 1288 1532Q1288 1513 1264 1513Q1255 1513 1245 1518Q1198 1541 1175 1541Q1113 1541 1038 1419Q763 970 637 223Q663 248 707 301Q733 332 745 332Q772 332 750 301Q654 168 623
14Q611 -23 593 -23Q584 -23 571 -14Q521 20 515 26Q495 45 495 77Q495 94 500 117Q543 348 571 461Q473 320 350 180T170 2Q127 -27 106 -27Q88 -27 51 2Q-14 42 -14 95Q-14 104 -12 115Q9 264 121 460T379 791Q426 835 463 834Q502 832 602 739Q611 731 611 722Q611
706 590 706Q583 706 575 709Q505 739 461 707Q367 637 254 464Q123 264 100 104Q95 66 120 66Q153 66 201 113Q312 222 440 387Q571 558 608 645Q629 693 641 737Q745 1105 873 1366Q973 1570 1049 1640Q1077 1667 1103 1667Q1131 1667 1175 1634Q1225 1593 1276
1552Z" />
<glyph unicode="e" glyph-name="e" horiz-adv-x="600" d="M563 285Q320 -26 221 -26Q174 -26 102 39Q27 74 27 133Q27 144 29 156Q47 293 102 459Q65 478 65 495Q65 509 86 509Q102 509 119 500Q208 700 279 784Q325 840 362 840Q379 840 446 811Q441 841 463
846Q464 846 510 846Q553 846 553 831Q553 828 550 814T547 788Q547 752 548 699T549 628Q549 504 481 455Q419 410 341 410Q300 410 205 432Q188 401 167 311Q139 197 141 109Q142 57 174 57Q186 57 205 63Q321 104 528 313Q541 326 554 326Q573 326 573 308Q573
297 563 285ZM446 727Q446 766 429 766Q418 766 397 750Q299 671 225 473Q245 470 295 467Q376 464 416 504Q446 534 449 603Q446 552 446 727Z" />
<glyph unicode="f" glyph-name="f" horiz-adv-x="498" d="M881 1501Q896 1490 896 1477Q896 1457 871 1457Q860 1457 850 1462Q793 1493 749 1493Q716 1493 690 1477Q590 1413 373 809Q535 784 578 784Q601 784 601 767Q601 748 578 743Q461 721 340 715Q203 310
126 -38Q64 -319 64 -439Q64 -449 67 -469T70 -501Q70 -517 59 -517Q44 -517 -12 -483Q-79 -444 -70 -391Q14 53 225 713Q147 708 131 709Q110 712 102 729Q91 756 91 759Q91 774 123 782Q169 793 215 803Q257 815 264 836Q425 1302 517 1472Q593 1612 662 1612Q728
1612 881 1501Z" />
<glyph unicode="g" glyph-name="g" horiz-adv-x="795" d="M745 707Q438 -886 -53 -885Q-230 -885 -436 -690Q-455 -672 -455 -653Q-455 -624 -428 -624Q-414 -624 -401 -635Q-238 -774 -109 -774Q303 -774 578 436Q411 149 287 25Q237 -26 198 -26Q162 -26 109
14Q14 61 18 168Q24 299 119 493Q212 682 313 778Q370 832 416 832Q450 832 491 802Q497 797 571 731Q586 718 586 705Q586 687 562 687Q547 687 528 696Q498 712 469 712Q427 712 393 682Q320 618 240 474Q153 316 133 186Q128 151 128 125Q128 51 168 51Q195
51 225 78Q344 180 461 373Q570 551 616 700Q633 753 633 801Q633 839 651 839Q670 839 725 797Q758 772 745 707Z" />
<glyph unicode="h" glyph-name="h" horiz-adv-x="856" d="M840 1552Q853 1542 853 1530Q853 1512 830 1512Q820 1512 809 1518Q763 1541 740 1541Q679 1541 604 1419Q340 989 213 293Q376 606 586 793Q631 833 652 833Q658 833 702 805Q755 783 762 777Q788 754
788 697Q788 681 786 662Q769 484 684 231Q715 273 782 354Q798 371 809 371Q820 371 820 358Q820 343 807 324Q749 240 653 78Q645 62 614 -6Q601 -38 578 -38Q552 -38 503 -3Q483 11 496 41Q668 473 678 686Q681 747 661 747Q648 747 606 713Q529 651 417 493Q269
285 188 68Q166 6 147 6Q130 6 80 47Q55 68 63 117Q179 752 365 1202Q503 1537 614 1640Q642 1666 669 1666Q697 1666 740 1634Q790 1593 840 1552Z" />
<glyph unicode="i" glyph-name="i" horiz-adv-x="389" d="M465 1118Q481 1106 481 1091Q481 1062 395 1001Q338 962 285 973Q255 979 233 995Q226 1001 223 1007T221 1018Q224 1022 233 1020Q325 1100 354 1135Q377 1161 387 1161Q405 1161 465 1118ZM324 680Q300
545 199 231Q228 257 279 326Q286 335 293 335Q309 335 297 307Q292 296 213 170Q153 74 125 0Q116 -23 92 -23Q68 -23 27 0Q1 14 1 21Q1 27 12 47Q66 142 132 365Q195 581 203 686Q206 731 194 731Q185 731 162 709L100 651Q67 621 67 648Q67 656 76 668Q123 734
176 793Q192 810 207 810Q223 810 254 788Q300 776 305 773Q328 759 328 721Q328 703 324 680Z" />
<glyph unicode="j" glyph-name="j" horiz-adv-x="389" d="M496 1118Q513 1106 513 1091Q513 1062 426 1001Q367 961 315 973Q282 981 264 995Q258 1001 255 1007T253 1018Q256 1022 266 1020Q312 1045 385 1135Q406 1161 417 1161Q435 1161 496 1118ZM338 692Q199
51 77 -267Q-160 -885 -467 -885Q-642 -885 -850 -690Q-869 -672 -869 -653Q-869 -624 -841 -624Q-828 -624 -815 -635Q-652 -774 -522 -774Q-109 -774 166 438Q193 558 215 690Q184 659 142 610T85 548T60 534Q40 534 40 557Q40 570 49 582Q93 634 195 760Q211
781 211 786Q211 824 237 824Q264 824 319 782Q352 758 338 692Z" />
<glyph unicode="k" glyph-name="k" horiz-adv-x="793" d="M932 -106Q839 -250 782 -250Q712 -250 582 -63T358 358Q239 211 193 14Q182 -30 167 -30Q161 -30 143 -23Q60 13 60 50Q60 55 72 117Q187 752 372 1202Q510 1538 621 1640Q649 1667 676 1667Q704 1667
748 1634Q798 1593 848 1552Q862 1542 862 1530Q862 1512 839 1512Q828 1512 817 1518Q771 1541 748 1541Q685 1541 610 1419Q341 980 223 274Q247 323 332 461Q321 496 321 502Q321 526 389 539Q525 737 612 805Q643 829 660 829Q677 829 723 780Q795 751 795
708Q795 694 791 672Q772 589 737 526Q719 493 699 493Q685 493 655 504Q598 524 598 545Q598 558 616 565Q658 601 668 707Q670 732 655 732Q646 732 631 721Q521 641 442 489Q594 20 788 -98Q812 -112 837 -112Q873 -112 892 -91T926 -70Q940 -70 940 -85Q940
-94 932 -106Z" />
<glyph unicode="l" glyph-name="l" horiz-adv-x="389" d="M840 1552Q853 1542 853 1531Q853 1512 830 1512Q820 1512 809 1518Q763 1541 740 1541Q677 1541 602 1419Q330 976 215 274Q212 255 205 223Q228 247 273 301Q299 332 311 332Q337 332 315 301Q219 164
188 14Q177 -23 160 -23Q152 -23 139 -14Q88 20 81 26Q61 46 61 78Q61 94 66 117Q182 754 365 1202Q503 1540 612 1640Q642 1668 672 1667Q699 1666 742 1633Q791 1593 840 1552Z" />
<glyph unicode="m" glyph-name="m" horiz-adv-x="1317" d="M1255 319Q1190 222 1061 -23Q1049 -45 1046 -46Q1037 -51 1004 -41Q935 -20 935 -1Q935 10 944 31Q1019 206 1072 404T1124 709Q1124 744 1099 744Q1082 744 1059 725Q974 656 839 457Q677 217 610 8Q603
-16 598 -19Q592 -22 569 -14Q535 -2 504 20Q489 31 489 43Q489 45 504 82Q635 410 635 717Q635 748 617 748Q604 748 584 731Q477 641 346 421Q220 211 158 27Q142 -20 125 -20Q105 -20 43 25Q27 34 27 44Q27 55 49 78Q90 165 142 378Q201 621 193 731Q178 716
142 682T88 629Q75 616 65 616Q50 616 50 636Q50 652 61 664Q117 722 172 801Q192 829 207 829Q218 829 250 797Q275 788 300 779Q321 769 321 742Q321 734 319 725Q294 532 242 365Q419 683 571 817Q592 836 612 836Q633 836 676 809Q717 791 730 777Q745 759
745 721Q745 517 698 358Q893 667 1053 817Q1074 837 1097 837Q1127 837 1171 797Q1249 785 1245 702Q1233 461 1141 236Q1191 295 1219 338Q1232 359 1249 359Q1264 359 1264 343Q1264 333 1255 319Z" />
<glyph unicode="n" glyph-name="n" horiz-adv-x="860" d="M801 356Q741 265 645 92Q627 47 610 2Q596 -29 573 -29Q555 -29 520 -14Q481 2 481 18Q481 25 494 49Q559 181 610 378Q665 585 657 694Q655 738 637 738Q624 738 598 713Q346 467 162 55Q139 4 108 4Q86
4 35 29Q15 38 14 46Q14 50 25 74Q83 201 140 396Q201 607 209 725Q211 761 207 761Q206 761 179 734T104 664Q95 655 84 655Q70 655 70 666Q70 674 80 684Q123 739 193 821Q208 838 224 838Q248 838 266 803Q347 779 342 729Q331 619 229 332Q296 461 424 620T614
809Q645 823 658 823Q671 823 700 801Q783 772 782 705Q782 635 748 480Q721 352 698 281Q727 318 772 377Q780 387 788 387Q803 387 803 368Q803 362 801 356Z" />
<glyph unicode="o" glyph-name="o" horiz-adv-x="713" d="M684 633Q682 544 641 397Q576 165 457 37Q394 -31 317 -31Q287 -31 240 -18Q146 -12 87 41Q23 99 27 190Q31 296 100 486Q176 693 258 784Q297 828 322 828Q356 828 432 758Q453 768 518 795Q551 806
568 806Q607 806 655 733Q686 688 684 633ZM569 604Q576 671 576 689Q576 731 550 731Q540 731 524 727L369 664Q342 653 338 653Q330 653 322 672Q264 601 214 467Q175 362 160 279Q149 223 149 177Q149 23 244 27Q282 28 326 57Q410 114 483 285Q553 446 569
604Z" />
<glyph unicode="p" glyph-name="p" horiz-adv-x="844" d="M809 616Q797 447 720 253Q648 72 578 6Q538 -31 497 -31Q451 -31 344 43Q323 57 323 72Q323 91 350 91Q361 91 382 84T416 77Q489 77 547 170Q596 250 640 385Q693 553 686 674Q683 732 647 732Q615 732
569 688Q245 378 113 -53Q38 -298 13 -507Q12 -514 -14 -854Q-18 -903 -38 -903Q-59 -903 -113 -854Q-152 -818 -143 -766Q-99 -268 98 343Q253 821 344 963Q398 1046 440 1044Q482 1043 600 969Q616 959 616 948Q616 933 592 933Q586 933 572 935T551 938Q488
938 420 831Q380 770 319 626T231 389Q378 629 573 801Q603 827 627 827Q638 827 682 797Q818 749 809 616Z" />
<glyph unicode="q" glyph-name="q" horiz-adv-x="733" d="M721 756Q738 740 738 718Q738 701 690 590Q624 437 540 125Q474 -118 449 -252Q501 -152 541 -98Q552 -83 570 -83Q594 -83 594 -105Q594 -114 588 -125Q410 -434 387 -823Q382 -915 364 -915Q346 -915
272 -842Q245 -815 245 -775Q245 -765 264 -639Q297 -418 377 -92Q443 177 475 270Q377 100 238 -12Q219 -27 196 -27Q163 -27 129 2Q62 24 36 49Q4 80 6 137Q12 286 102 475Q186 654 283 748Q346 809 400 809Q452 809 567 705Q582 692 582 682Q582 669 561 669Q550
669 537 674Q474 698 448 698Q393 698 334 625Q257 530 196 400Q119 237 119 117Q119 47 166 47Q195 47 229 80Q334 180 444 361Q520 486 563 586Q604 680 618 739Q620 759 622 779Q626 804 641 805Q665 806 721 756Z" />
<glyph unicode="r" glyph-name="r" horiz-adv-x="643" d="M674 752Q674 621 639 502Q628 466 609 466Q595 466 547 506Q523 526 535 563Q563 654 563 709Q563 728 555 728Q543 728 516 692Q308 421 205 84Q172 -23 149 -23Q140 -23 70 12Q36 29 47 78Q126 424
217 662Q143 584 123 555Q115 543 101 543Q84 543 84 558Q84 567 92 578Q141 637 223 758Q248 802 273 802Q291 802 346 774Q377 758 356 731Q334 702 273 526Q215 355 193 258Q329 561 502 793Q535 837 555 837Q573 837 604 813Q646 808 657 800Q674 788 674 752Z"
/>
<glyph unicode="s" glyph-name="s" horiz-adv-x="500" d="M516 801Q516 756 492 657Q483 623 472 613Q467 608 438 598Q401 584 392 584Q377 584 377 604Q377 615 381 633Q405 732 400 770T422 819Q471 844 485 844Q516 844 516 801ZM356 227Q359 107 223 63Q206
21 191 5Q168 -19 123 -23Q94 -25 61 -20Q2 -11 -84 2Q-108 6 -113 31Q-109 58 -57 63Q14 68 153 88Q205 100 227 147Q240 171 240 206Q240 269 177 428Q115 583 119 635Q127 760 350 809Q372 814 372 793Q372 781 356 774Q248 727 248 658Q248 631 258 591T318
396Q355 285 356 227Z" />
<glyph unicode="t" glyph-name="t" horiz-adv-x="479" d="M608 1276Q636 1261 636 1242Q636 1229 617 1229Q613 1229 605 1230T592 1232Q554 1232 500 1149Q452 1075 367 827Q359 805 361 801Q364 794 387 793Q446 788 545 797Q579 800 579 768Q579 746 553 741Q532
738 332 723Q212 372 186 129Q185 116 185 106Q185 72 202 72Q229 72 365 203Q381 219 396 219Q409 219 412 208Q415 196 403 180Q322 73 244 -2Q211 -33 189 -33Q167 -33 121 2Q64 17 64 62Q64 69 66 78Q103 336 211 713Q158 720 115 727Q96 730 96 751Q96 774
116 779T190 801Q223 812 254 831Q361 1162 422 1260Q457 1316 497 1316Q535 1316 608 1276Z" />
<glyph unicode="u" glyph-name="u" horiz-adv-x="813" d="M805 725Q672 478 606 145Q634 194 674 270Q679 284 690 284Q705 284 705 265Q705 259 702 252Q638 106 618 27Q606 -23 586 -23Q566 -23 508 16Q477 38 487 94Q529 312 588 473Q395 159 264 10Q235 -23
201 -23Q173 -23 135 0Q66 12 66 72Q66 83 68 96Q93 382 172 571Q155 555 121 524Q108 513 101 518Q93 524 104 541Q158 620 168 645Q199 723 233 766Q251 788 271 788Q298 788 350 756Q364 747 364 738Q364 738 342 705Q292 629 236 437Q175 229 174 98Q174 55
192 55Q208 55 244 92Q321 174 467 402Q596 603 623 664Q668 766 696 784Q714 796 728 796Q742 796 782 775T822 744Q822 741 815 736T805 725Z" />
<glyph unicode="v" glyph-name="v" horiz-adv-x="711" d="M727 723Q702 666 670 588Q677 568 715 520Q722 510 712 500T685 490Q661 490 643 512Q577 363 493 209Q405 45 367 6Q334 -27 301 -27Q270 -27 246 -2Q208 -18 191 -18Q156 -18 137 43Q111 129 111 288Q111
515 150 627Q128 607 66 539Q55 527 41 527Q22 527 22 544Q22 553 31 565Q91 646 188 780Q213 816 240 816Q270 816 332 768Q345 757 345 744Q345 719 309 707Q221 519 221 284Q221 163 250 82Q261 50 280 50Q299 50 324 84Q401 191 476 346Q543 485 565 569Q552
592 552 630Q552 698 596 811Q615 858 645 858Q662 858 715 827Q741 812 741 787Q741 769 727 723Z" />
<glyph unicode="w" glyph-name="w" horiz-adv-x="1055" d="M1047 516Q1061 503 1061 488Q1061 458 1034 458Q1028 458 994 480Q978 491 967 496Q841 149 752 25Q718 -23 682 -23Q666 -23 612 -6Q566 9 555 20T532 76Q487 256 487 371Q438 301 323 164Q214 33 190
-2Q178 -21 156 -21Q128 -21 68 25Q53 36 53 46Q53 61 94 92Q128 191 153 346Q177 498 177 607Q177 662 170 692Q149 671 82 584Q71 569 56 569Q34 569 34 590Q34 599 41 608Q72 648 129 737Q147 771 176 783Q183 786 252 803Q270 807 280 807Q298 807 302 788Q305
774 305 719Q305 405 236 172Q419 352 485 522Q493 617 501 658Q514 727 543 776Q567 819 596 819Q620 819 670 784Q698 765 698 749Q698 740 682 696Q652 612 608 551Q599 485 599 414Q599 267 639 109Q650 65 667 65Q686 65 713 117Q862 405 897 551Q884 568
870 587T856 629Q856 649 866 676Q876 722 886 767Q902 826 939 826Q969 826 1020 797Q1050 779 1050 739Q1050 706 1027 650Q1010 610 993 569Q1002 558 1047 516Z" />
<glyph unicode="x" glyph-name="x" horiz-adv-x="672" d="M702 711Q664 664 526 535Q393 411 375 387Q400 283 453 119Q472 76 496 76Q511 76 549 104Q559 112 570 112Q589 112 589 94Q589 85 582 76Q494 -24 444 -31Q388 -38 360 35Q318 146 279 303Q-98 -94
-109 -287Q-111 -342 -92 -373Q-69 -409 -96 -409Q-107 -409 -119 -395Q-163 -344 -175 -319Q-194 -282 -193 -225Q-191 -143 -52 35Q75 199 258 371Q196 618 154 676Q135 701 120 701Q105 701 76 680Q64 672 54 672Q39 672 39 684Q39 697 57 711Q148 777 193 799Q226
815 235 815Q256 815 268 780Q285 733 358 469Q509 624 561 688Q649 796 653 860Q655 894 645 918Q634 943 653 943Q660 943 668 934Q739 846 739 797Q739 755 702 711Z" />
<glyph unicode="y" glyph-name="y" horiz-adv-x="834" d="M776 692Q637 51 515 -267Q279 -885 -27 -885Q-206 -885 -412 -690Q-430 -673 -430 -654Q-430 -624 -402 -624Q-388 -624 -375 -635Q-212 -774 -84 -774Q151 -774 343 -382Q494 -75 606 442Q613 479 629
555Q524 384 394 218Q269 58 197 -2Q157 -35 133 -35Q114 -35 94 -14Q73 13 51 39Q41 51 41 61Q41 62 41 63Q43 75 59 80Q107 145 149 361Q181 531 193 684Q195 720 184 720Q181 720 137 684Q67 625 61 625Q47 625 47 639Q47 646 53 653Q70 674 129 758Q182 833
200 833Q214 833 238 821Q289 829 295 829Q329 829 329 777Q329 690 279 437T197 109Q297 188 457 419Q613 644 651 758Q653 825 680 825Q701 825 758 782Q790 758 776 692Z" />
<glyph unicode="z" glyph-name="z" horiz-adv-x="655" d="M670 766Q670 739 643 676Q629 642 601 642Q586 642 545 653Q463 576 375 453Q405 453 457 456T522 459Q548 459 548 445Q548 433 526 428Q430 404 295 360Q177 210 143 137Q180 137 300 122T467 106Q526
106 563 162Q573 177 584 177Q604 177 592 145Q581 118 532 29Q499 -33 430 -33Q385 -33 271 1T98 35Q74 35 55 33Q28 -27 -6 -31Q-28 -31 -45 0Q-65 34 -65 58Q-65 83 -45 104Q-8 145 49 145Q137 244 176 305Q173 324 164 360Q157 389 157 400Q157 412 162 420Q181
451 289 451Q379 567 465 668Q378 690 283 690Q220 690 184 666T113 575Q100 551 84 551Q72 551 72 568Q72 577 76 588Q113 698 147 760Q167 795 180 804Q202 819 258 819Q348 819 569 766Q613 802 626 802Q636 802 649 797Q670 785 670 766Z" />
<glyph unicode="{" glyph-name="braceleft" horiz-adv-x="819" d="M930 1436Q954 1436 954 1409Q954 1379 924 1378Q822 1376 786 1355T719 1255Q671 1107 578 840Q549 763 483 708Q425 658 371 649Q457 589 457 515Q457 481 444 438Q389 266 326 68Q309 13 309
-20Q309 -106 436 -106Q466 -106 466 -137Q466 -164 440 -164Q301 -161 244 -133Q177 -100 177 -22Q177 17 193 68Q233 169 348 492Q354 509 354 525Q354 596 244 653Q232 660 232 676Q232 710 258 709Q319 705 377 735Q443 769 463 831Q523 1043 588 1274Q631
1417 737 1436Q737 1436 930 1436Z" />
<glyph unicode="|" glyph-name="bar" horiz-adv-x="819" d="M580 1427L565 211Q562 -60 614 -96Q635 -111 635 -132Q635 -171 575 -168L502 -164Q441 -160 442 -70L457 1161Q457 1226 447 1304Q433 1412 406 1434Q380 1449 380 1467Q380 1486 408 1495L516 1513Q570
1513 580 1427Z" />
<glyph unicode="}" glyph-name="braceright" horiz-adv-x="819" d="M766 1210Q725 1109 610 786Q605 769 605 753Q605 682 715 625Q727 618 727 602Q727 568 700 569Q639 573 582 543Q515 509 496 446Q436 235 371 4Q327 -139 221 -158Q221 -158 29 -158Q5 -158
5 -131Q5 -101 35 -100Q137 -98 172 -77T240 23Q288 171 381 438Q410 515 475 570Q534 620 588 629Q501 689 501 763Q501 797 514 840Q569 1012 633 1210Q649 1265 649 1298Q649 1384 522 1384Q493 1384 493 1415Q493 1442 518 1442Q657 1439 715 1411Q781 1378
781 1300Q781 1261 766 1210Z" />
<glyph unicode="~" glyph-name="asciitilde" horiz-adv-x="922" d="M893 764Q847 708 779 643Q702 570 686 575Q620 588 514 711Q449 772 393 780Q360 789 242 664Q242 634 223 634Q206 634 188 655Q159 691 159 699Q159 708 166 717Q211 773 281 841Q359 915
377 911Q434 900 547 770Q593 727 624 714Q645 707 666 700Q710 694 817 821Q820 849 841 849Q858 849 874 829Q903 795 903 786Q903 776 893 764Z" />
</font>
</defs>
</svg>
